<svg xmlns="http://www.w3.org/2000/svg" width="24" height="24" viewBox="0 0 219.38 219.38">
  <path fill="currentColor" d="M127.52 0H40.63c-6.62 0-12 5.38-12 12v195.38c0 6.61 5.38 12 12 12h138.12c6.61 0 12-5.39 12-12V59.23c0-3.2-1.25-6.22-3.52-8.49L135.87 3.38A11.92 11.92 0 0 0 127.52 0zm48.23 204.38H43.63V15h71.77v40.24c0 8.88 7.22 16.11 16.1 16.11h44.25v133.03zM131.5 56.35c-.6 0-1.1-.5-1.1-1.11V23.66l34.97 32.69H131.5zm-66 41.46a9.33 9.33 0 0 0 0 18.64 9.33 9.33 0 0 0 0-18.64zm17 1.82H162v15H82.5v-15zm-17 28.18a9.33 9.33 0 0 0 0 18.64 9.33 9.33 0 0 0 0-18.64zm17 1.82H162v15H82.5v-15zm-17 28.18a9.33 9.33 0 0 0 0 18.64 9.33 9.33 0 0 0 0-18.64zm17 1.82H162v15H82.5v-15z"/>
</svg>