<svg xmlns="http://www.w3.org/2000/svg" viewBox="0 0 68.59 91.09" width="68.59" height="91.09">
  <g fill="#231f20">
    <path d="M12.78 72.72a4.71 4.71 0 0 0-1.62-1.53 4.78 4.78 0 0 0-2.41-.57 5.66 5.66 0 0 0-1.08.1 4.56 4.56 0 0 0-1 .33 6.1 6.1 0 0 0-1 .56l-.46.36v-3.7a.69.69 0 0 0-.14-.42.9.9 0 0 0-.4-.28 2.69 2.69 0 0 0-.59-.13 7.7 7.7 0 0 0-.86 0 7.65 7.65 0 0 0-.86 0 2.68 2.68 0 0 0-.59.13.91.91 0 0 0-.41.28.69.69 0 0 0-.13.42v15.46a.72.72 0 0 0 .11.41.76.76 0 0 0 .37.28 2 2 0 0 0 .53.12h1.44a2 2 0 0 0 .53-.12.79.79 0 0 0 .37-.27.69.69 0 0 0 .13-.42v-.59c.16.16.32.31.48.44a5.66 5.66 0 0 0 1 .68 4.17 4.17 0 0 0 1.08.4 5.57 5.57 0 0 0 1.2.12 5.11 5.11 0 0 0 2.33-.52 4.79 4.79 0 0 0 1.73-1.48 6.92 6.92 0 0 0 1.06-2.28 11.33 11.33 0 0 0 .36-3 11.88 11.88 0 0 0-.28-2.61 6.79 6.79 0 0 0-.89-2.17zM9.72 79.1a3.89 3.89 0 0 1-.41 1.15 2.47 2.47 0 0 1-.68.79 1.54 1.54 0 0 1-1 .28 2 2 0 0 1-1.2-.43 6.77 6.77 0 0 1-1.25-1.26v-3.8a8.78 8.78 0 0 1 .69-.8 4.41 4.41 0 0 1 .67-.56 2.26 2.26 0 0 1 .59-.29 2.13 2.13 0 0 1 .58-.08 1.57 1.57 0 0 1 1 .28 2.19 2.19 0 0 1 .65.78 4 4 0 0 1 .37 1.18 9.08 9.08 0 0 1 .11 1.44 6.94 6.94 0 0 1-.12 1.32zM27.25 72.44a5.25 5.25 0 0 0-2.08-1.37 8.48 8.48 0 0 0-2.91-.46 8 8 0 0 0-3 .52 5.78 5.78 0 0 0-2.17 1.49 6.22 6.22 0 0 0-1.3 2.29 9.41 9.41 0 0 0-.43 2.9 10.16 10.16 0 0 0 .39 2.92A5.64 5.64 0 0 0 17 82.95a5.36 5.36 0 0 0 2.08 1.37 8.32 8.32 0 0 0 2.9.46 8 8 0 0 0 3-.52 5.77 5.77 0 0 0 2.17-1.49 6.27 6.27 0 0 0 1.29-2.3 9.55 9.55 0 0 0 .42-2.9 10.17 10.17 0 0 0-.39-2.94 5.74 5.74 0 0 0-1.22-2.19zm-2.64 6.92a3.43 3.43 0 0 1-.5 1.18 2.14 2.14 0 0 1-.82.71 2.77 2.77 0 0 1-1.21.24 2.7 2.7 0 0 1-1.27-.27 2 2 0 0 1-.79-.75 3.85 3.85 0 0 1-.45-1.21 8.23 8.23 0 0 1-.14-1.58 7.06 7.06 0 0 1 .19-1.68 3.54 3.54 0 0 1 .5-1.19 2.17 2.17 0 0 1 .82-.72 2.78 2.78 0 0 1 1.2-.25 2.61 2.61 0 0 1 1.27.27 2.1 2.1 0 0 1 .79.76 3.58 3.58 0 0 1 .44 1.21 8.58 8.58 0 0 1 .14 1.59 7.33 7.33 0 0 1-.16 1.69zM34.41 67.57a2.72 2.72 0 0 0-.59-.13 8.85 8.85 0 0 0-1.72 0 2.72 2.72 0 0 0-.59.13.91.91 0 0 0-.4.28.69.69 0 0 0-.14.42v15.46a.65.65 0 0 0 .14.42.88.88 0 0 0 .41.26 2.66 2.66 0 0 0 .59.12 8 8 0 0 0 .85 0 8.06 8.06 0 0 0 .86 0 2.69 2.69 0 0 0 .58-.12.85.85 0 0 0 .41-.26.66.66 0 0 0 .14-.42V68.26a.68.68 0 0 0-.14-.42.86.86 0 0 0-.4-.27zM48.45 70.9a7.39 7.39 0 0 0-1-.06 7 7 0 0 0-1.09.06 1.12 1.12 0 0 0-.56.24 1.09 1.09 0 0 0-.29.59l-2.36 7.47-2.57-7.3a2.78 2.78 0 0 0-.22-.54.85.85 0 0 0-.42-.38 2 2 0 0 0-.62-.12h-.93a8 8 0 0 0-1.06.06 1.34 1.34 0 0 0-.7.26.79.79 0 0 0-.26.61 2.55 2.55 0 0 0 .2.83l4.15 11.08a1.45 1.45 0 0 0 .26.45 1.38 1.38 0 0 0 .18.18l-.79 1.79a1.92 1.92 0 0 1-2 1.18c-.79 0-1.16-.47-1.51-.47s-.5 0-.5.5v2.57c0 .43.54.95 1.62 1.08a5.26 5.26 0 0 0 4.66-1.16 5.57 5.57 0 0 0 2-3.29l4.75-14.06a2.22 2.22 0 0 0 .12-.68.79.79 0 0 0-.29-.62 1.43 1.43 0 0 0-.77-.27zM60 71.82a4.37 4.37 0 0 0-1.77-.91 9.5 9.5 0 0 0-2.5-.29 9.34 9.34 0 0 0-1.59.13 10.55 10.55 0 0 0-1.43.34 8.15 8.15 0 0 0-1.15.46 2.74 2.74 0 0 0-.74.49 1.3 1.3 0 0 0-.33.56 2.76 2.76 0 0 0-.08.74 4.25 4.25 0 0 0 0 .62 2.28 2.28 0 0 0 .14.5 1 1 0 0 0 .27.38c.28.23.64.22 1.15-.07.22-.12.5-.26.84-.41a8.48 8.48 0 0 1 1.19-.41 5.39 5.39 0 0 1 1.44-.17 3.6 3.6 0 0 1 1 .12 1.32 1.32 0 0 1 .58.34 1.4 1.4 0 0 1 .31.59 3.68 3.68 0 0 1 .11.92v.44h-.94a14.79 14.79 0 0 0-2.88.25 6.34 6.34 0 0 0-2.13.79 3.67 3.67 0 0 0-1.33 1.39 4.15 4.15 0 0 0-.45 2 4.43 4.43 0 0 0 .35 1.82 3.6 3.6 0 0 0 1 1.33 4.26 4.26 0 0 0 1.49.8 6.23 6.23 0 0 0 1.85.26 5.22 5.22 0 0 0 2.24-.47 5.63 5.63 0 0 0 1.28-.83v.29a.68.68 0 0 0 .21.51 1 1 0 0 0 .54.23 6 6 0 0 0 .93.05 6 6 0 0 0 .91-.05 1.18 1.18 0 0 0 .56-.21.64.64 0 0 0 .24-.52v-8.17a7.18 7.18 0 0 0-.31-2.24 3.64 3.64 0 0 0-1-1.6zm-2.57 8.73a5.13 5.13 0 0 1-1.09.93 2.18 2.18 0 0 1-1.17.32 1.65 1.65 0 0 1-1.17-.35 1.24 1.24 0 0 1-.38-1 1.53 1.53 0 0 1 .14-.66 1.21 1.21 0 0 1 .44-.47A2.38 2.38 0 0 1 55 79a6.74 6.74 0 0 1 1.35-.12h1zM68 71.28a.93.93 0 0 0-.4-.26 2.58 2.58 0 0 0-.59-.13 9 9 0 0 0-1.72 0 2.52 2.52 0 0 0-.58.13.93.93 0 0 0-.4.26.67.67 0 0 0-.14.42v12a.66.66 0 0 0 .14.42.87.87 0 0 0 .41.26 2.71 2.71 0 0 0 .59.12 8 8 0 0 0 .85 0 8.11 8.11 0 0 0 .86 0 2.65 2.65 0 0 0 .58-.12.86.86 0 0 0 .41-.26.66.66 0 0 0 .14-.42v-12a.67.67 0 0 0-.15-.42z"/>
  </g>
  <g fill="#ed1c24">
    <path d="M50.73 67.06v.29a1.34 1.34 0 0 1 0 .2.49.49 0 0 1 0 .13.46.46 0 0 1-.1.13 1.5 1.5 0 0 1-.27.19 2.62 2.62 0 0 1-.44.19 3.51 3.51 0 0 1-.54.14 3.46 3.46 0 0 1-1.81-.16 2.28 2.28 0 0 1-.89-.63 2.8 2.8 0 0 1-.54-1 5.3 5.3 0 0 1 0-2.91 2.86 2.86 0 0 1 .62-1.08 2.45 2.45 0 0 1 .94-.63 3.36 3.36 0 0 1 1.2-.21 3.17 3.17 0 0 1 1 .17 2.55 2.55 0 0 1 .4.18 1.22 1.22 0 0 1 .25.17.76.76 0 0 1 .1.12.48.48 0 0 1 0 .13 1.13 1.13 0 0 1 0 .2v.29a1.45 1.45 0 0 1-.07.54c0 .11-.1.16-.17.16a.41.41 0 0 1-.24-.1l-.3-.21a2.41 2.41 0 0 0-.41-.21 1.64 1.64 0 0 0-.58-.09 1.13 1.13 0 0 0-1 .5A2.58 2.58 0 0 0 47.6 65a3.52 3.52 0 0 0 .09.84 1.77 1.77 0 0 0 .26.61 1.08 1.08 0 0 0 .43.37A1.39 1.39 0 0 0 49 67a1.55 1.55 0 0 0 .59-.11 2.45 2.45 0 0 0 .44-.23 3.39 3.39 0 0 0 .31-.23.38.38 0 0 1 .22-.1.15.15 0 0 1 .1 0 .23.23 0 0 1 .06.13 1.14 1.14 0 0 1 0 .23l.01.37zM53.62 68a.18.18 0 0 1 0 .12.3.3 0 0 1-.14.08l-.26.05h-.82l-.25-.05a.32.32 0 0 1-.14-.08.18.18 0 0 1 0-.12v-7.24a.21.21 0 0 1 0-.12.32.32 0 0 1 .14-.09 1 1 0 0 1 .25-.06h.82a1.07 1.07 0 0 1 .26.06.31.31 0 0 1 .14.09.21.21 0 0 1 0 .12zM60.93 68a.2.2 0 0 1 0 .12.23.23 0 0 1-.12.08l-.22.05h-.7l-.22-.05a.23.23 0 0 1-.11-.08.19.19 0 0 1 0-.12v-.69a3.85 3.85 0 0 1-1 .8 2.24 2.24 0 0 1-1.05.26 2.33 2.33 0 0 1-1-.2 1.74 1.74 0 0 1-.67-.54 2.24 2.24 0 0 1-.37-.8 4.93 4.93 0 0 1-.11-1.14v-3.63a.21.21 0 0 1 0-.12.32.32 0 0 1 .13-.08 1.25 1.25 0 0 1 .26 0h.81a1.18 1.18 0 0 1 .25 0 .32.32 0 0 1 .14.08.19.19 0 0 1 0 .12v3.36a3.39 3.39 0 0 0 .06.71 1.26 1.26 0 0 0 .18.43.88.88 0 0 0 .31.27.94.94 0 0 0 .44.1 1.13 1.13 0 0 0 .64-.23 3.86 3.86 0 0 0 .69-.68v-3.96a.19.19 0 0 1 0-.12.31.31 0 0 1 .13-.08 1.23 1.23 0 0 1 .26 0h.81a1.17 1.17 0 0 1 .25 0 .31.31 0 0 1 .13.08.19.19 0 0 1 0 .12zM68.59 64.95a5.52 5.52 0 0 1-.17 1.43 3.41 3.41 0 0 1-.5 1.08 2.23 2.23 0 0 1-.81.68 2.36 2.36 0 0 1-1.08.24 2.63 2.63 0 0 1-.56-.05 1.89 1.89 0 0 1-.5-.18 2.76 2.76 0 0 1-.46-.32 4.68 4.68 0 0 1-.47-.47V68a.17.17 0 0 1 0 .12.23.23 0 0 1-.12.08.64.64 0 0 1-.22 0h-.68a.63.63 0 0 1-.22 0 .24.24 0 0 1-.12-.08.24.24 0 0 1 0-.12v-7.24a.19.19 0 0 1 0-.12.29.29 0 0 1 .13-.09 1.09 1.09 0 0 1 .26-.06h.82a1 1 0 0 1 .26.06.28.28 0 0 1 .13.09.19.19 0 0 1 0 .12v1.77a3.42 3.42 0 0 1 .45-.39 2.93 2.93 0 0 1 .45-.26 2 2 0 0 1 .46-.15 2.83 2.83 0 0 1 .51 0 2.2 2.2 0 0 1 1.11.26 2.14 2.14 0 0 1 .75.71 3.12 3.12 0 0 1 .42 1 5.74 5.74 0 0 1 .16 1.25zm-1.74.12a4.51 4.51 0 0 0-.06-.73 2.07 2.07 0 0 0-.2-.62 1.18 1.18 0 0 0-.36-.44.92.92 0 0 0-.56-.16 1.15 1.15 0 0 0-.33 0 1.25 1.25 0 0 0-.33.16 2.36 2.36 0 0 0-.35.29 4.14 4.14 0 0 0-.38.45v2a3.56 3.56 0 0 0 .67.69 1.15 1.15 0 0 0 .68.23.91.91 0 0 0 .55-.16 1.35 1.35 0 0 0 .38-.44 1.9 1.9 0 0 0 .22-.6 3.47 3.47 0 0 0 .07-.67z"/>
  </g>
  <path d="M37 51.61L27 33l3.43-6.28a6.59 6.59 0 0 1-1.88-4.45c0-1.51.4-6.94.79-11.84a7.51 7.51 0 0 0-1.55.27 2.65 2.65 0 0 0-1.29.81 5.52 5.52 0 0 0-.55.87l-6.46 12.39-6.57-12.39a5.11 5.11 0 0 0-.56-.88 2.58 2.58 0 0 0-1.36-.83 8.73 8.73 0 0 0-1.72-.27c-.63 0-1.46-.07-2.61-.07-1.35 0-2.36 0-3.07.09a3.54 3.54 0 0 0-2.16.75 2.15 2.15 0 0 0-.52 2.35 13.56 13.56 0 0 0 .91 2.15l9.43 17.4L1.06 51.6a11.8 11.8 0 0 0-.94 2.14A2.24 2.24 0 0 0 .53 56a3.22 3.22 0 0 0 2.09.88c.66.07 1.6.1 2.85.1s1.93 0 2.54-.06a8.68 8.68 0 0 0 1.7-.27 2.77 2.77 0 0 0 1.35-.79 4.34 4.34 0 0 0 .61-.93l7.09-13.68 7.1 13.65a3.52 3.52 0 0 0 .6 1 2.74 2.74 0 0 0 1.34.79 8.91 8.91 0 0 0 1.69.27c.61 0 1.43.06 2.6.06 1.34 0 2.34 0 3.08-.1a3.63 3.63 0 0 0 2.18-.79 2.2 2.2 0 0 0 .58-2.3 10.9 10.9 0 0 0-.93-2.22zM67.76 48.53a2.57 2.57 0 0 0-.86-1.16 2.19 2.19 0 0 0-1.3-.37H53.07v-8.19l-3 2-.71.48-.7-.51-7-5.11v17a3.88 3.88 0 0 0 1.19 3.09 4 4 0 0 0 2.68 1H65.6a2.14 2.14 0 0 0 1.4-.47 2.66 2.66 0 0 0 .8-1.19 6.27 6.27 0 0 0 .32-1.43 17.53 17.53 0 0 0 0-3.71 5.82 5.82 0 0 0-.36-1.43z" fill="#9fa1a4"/>
  <g fill="#ed1c24">
    <path d="M43.67 9.7a16 16 0 0 1-.59-1.92c-.24-.89-.71-1.06-1.56-.74-.58.22-1.92.74-3.28 1.29v5.12l4.84-1.92c.92-.38.92-.92.59-1.83zM52.91 5.13c.19.48.48.54 1.24.62l4.53.49V2.4A1.48 1.48 0 0 0 57.43 1h-1l-3.31 1.49a1 1 0 0 0-.68 1.24 13.14 13.14 0 0 0 .47 1.4z"/>
    <path d="M51.67 8.24c-.69-.17-1-.17-1.29-.86s-.82-3-1.12-3.95c-.25-.8-.06-1.39.46-1.64L51.46 1h-12a1.48 1.48 0 0 0-1.21 1.4v2.41c2.36-.57 4.9-1.2 5.36-1.33a1.6 1.6 0 0 1 2.28 1.09c.37 1.29.8 3.56 1.17 4.85s.57 1.34 1.29 1.47 1.83.27 2.33.31a1.58 1.58 0 0 1 1.66 1.29c.18.73 1.25 5 1.43 6a1.85 1.85 0 0 1-1.1 2l-8.39 4.11 2.32 1.15h.08a4.66 4.66 0 0 0 1.71.46h.16a4.68 4.68 0 0 0 1.72-.46h.07l6.29-3.12.12-.07a3.06 3.06 0 0 0 1.94-2.72V9.06c-2.52-.27-6.56-.7-7.02-.82z"/>
    <path d="M39.83 22.36c2.54-1.19 8.5-4 9.36-4.44 1.1-.55 1.18-.86 1-1.6a20.28 20.28 0 0 0-.62-2c-.27-.79-1.78-.67-3.13-.62a5.24 5.24 0 0 0-1.67.57c-.39.15-3.94 1.67-6.52 2.77v2.78a2.94 2.94 0 0 0 1.58 2.54z"/>
  </g>
  <g fill="#96080b">
    <path d="M42.72 20.39a3 3 0 0 1-1.89-2.95v-1.49l-2.59 1.11v2.78a2.94 2.94 0 0 0 1.58 2.53l3.62-1.71zM40.87 7.29l-2.62 1v5.12l2.6-1 .02-5.12zM48.71 22.42l-4.43 2.18 2.32 1.15h.08a4.66 4.66 0 0 0 1.71.46h.16a4.68 4.68 0 0 0 1.72-.46h.07l3.39-1.68zM40.9 1h-1.4a1.48 1.48 0 0 0-1.25 1.4v2.41l2.64-.64L40.9 1z"/>
  </g>
  <g fill="#757679">
    <path d="M31.88 21.58l2 .06a6 6 0 0 1-.26-.9l-1.87-.59v.36a4.66 4.66 0 0 0 .13 1.07zM34.52 22.87a6 6 0 0 1-.42-.72l-2.1-.07a5.82 5.82 0 0 0 .56 1.11zM33.54 20.2a5.73 5.73 0 0 1 0-.78l-1.66-1c0 .46 0 .87-.06 1.22zM37.66 25.86l-.81-.6-1.53.74.81.68zM36.41 24.92c-.25-.21-.48-.42-.7-.63l-1.6.66c.26.25.54.49.81.72zM33.53 18.86c0-.23 0-.57.05-1l-1.64-1c0 .35 0 .68-.06 1zM35.33 23.9a8.28 8.28 0 0 1-.49-.57l-1.94.31a9.94 9.94 0 0 0 .81.93zM33.77 12.57v-1l-1.41-.85c0 .33-.05.66-.08 1zM33.82 11v-1l-1.31-.8c0 .32 0 .64-.08 1zM33.6 17.3v-1l-1.6-.97-.07 1zM33.91 7.83v-1l-1.19-.71c0 .32-.05.65-.08 1zM33.72 14.15v-1l-1.47-.88c0 .33-.05.67-.08 1zM33.66 15.72v-1l-1.54-.92c0 .34 0 .67-.07 1zM33.86 9.42v-1l-1.27-.76c0 .34-.05.67-.08 1zM39 26.79l-.91-.62-1.56.83.82.66zM47.11 32l-.62-.39-1.58 1.71 1 .71zM34.1 1.51V.09h-.31a.79.79 0 0 0-.6.71v.12zM46.07 31.38L45.4 31l-1.6 1.53.71.53zM40.17 27.57l-.69-.46-1.7.91.86.66zM41.24 28.28l-.64-.42L39 29l.62.47zM42.42 29l-.74-.48-1.61 1.2.78.59zM45 30.69l-.88-.57-1.55 1.49.84.63zM43.67 29.85l-.81-.53-1.59 1.33.88.66zM34 6.25v-1l-1.11-.66c0 .32-.05.65-.08 1zM33.05 2.49l1 .6v-1l-.95-.57c.01.28-.02.61-.05.97zM34 4.67v-1L33 3c0 .31-.05.64-.08 1zM48.22 32.73l-.13-.08-.57-.35-1.25 2.06 2 1.43v-3.06z"/>
  </g>
  <g fill="#cdcfd0">
    <path d="M47.35 28.42l-.51-.25-.17 3 .51.33zM34.59 1.5l1.5-.87V.51a.62.62 0 0 0-.7-.5l-.71.06c-.06.4-.07.93-.09 1.43zM34.5 4.71L36.11 4V2.87l-1.58.79-.03 1.05zM34.57 22a6.26 6.26 0 0 0 .43.72l1.69-1.07a5.44 5.44 0 0 1-.25-.63zM35.3 23.11c.15.18.31.37.49.56l1.52-1a5.31 5.31 0 0 1-.38-.56zM34.26 12.61l1.92-.76v-1.24l-1.87.87-.05 1.13zM38.46 25.82l.89.61.79-1.75-.51-.28zM34 20.17l2.2-.81v-.85l-2.23 1a6 6 0 0 0 .03.66zM34.37 21.54l2-1a5.2 5.2 0 0 1-.09-.64l-2.13.78a5.23 5.23 0 0 0 .22.86zM37.25 24.95l.81.59 1.15-1.39-.62-.37zM44.09 26.76l-.61-.31-.48 2.4.81.53zM45.31 27.38l-.75-.38-.25 2.67.79.51zM39.76 26.71l.69.46.66-2-.53-.29zM46.36 27.92l-.57-.29-.21 2.86.62.39zM43 26.2l-.51-.26-.62 2.17.69.45zM40.88 27.45l.58.38.6-2.12-.51-.27zM36.19 13.89l-2 .84v1l2-.9v-.94zM34.55 3.1l1.55-.78V1.2l-1.51.88c-.02.32-.04.66-.04 1.02zM34.21 14.19l2-.83v-1l-1.94.77q-.05.55-.06 1.06zM34.09 17.34l2.12-1v-1l-2.07.91-.05 1.09zM34 18.94l2.2-1v-1.08l-2.14 1c-.06.49-.06.85-.06 1.08zM34.31 10.94l1.85-.87v-1l-1.81.9-.04.97zM34.36 9.42l1.79-.89V7.6l-1.75.8-.04 1.02zM34.45 6.31l1.68-.61V4.53l-1.64.71-.04 1.07zM34.41 7.85l1.73-.8v-.83l-1.69.62-.04 1.01zM36.72 24.53l.14.11 1.31-1.15a6.36 6.36 0 0 1-.52-.48l-1.49 1zM47.83 28.66l-.17 3.14.56.36v-3.3z"/>
  </g>
  <g fill="#757679">
    <path d="M50.38 30.84l.67-.41-.21-2.79-.59.27zM59.11 25.51l.56-.34.16-.1-.73-1.64a4.26 4.26 0 0 1-.53.46zM55.87 27.5l.63-.39-.38-1.95-.65.3zM56.95 26.84l.72-.44-.56-1.71-.53.25zM54.8 28.14l.62-.38-.42-2.08-.5.23zM53.82 28.75l.53-.32-.35-2.29-.57.27zM52.62 29.48l.74-.45-.36-2.4-.67.31zM51.53 30.14l.63-.38-.28-2.6-.55.26zM61.4 2.31c0-.55-.08-1.07-.12-1.55H61c-.37 0-.48.27-.51.85a.31.31 0 0 1 0 .05v.12zM62.51 16.61l-2.11-1.34v1.06L62.62 18l-.11-1.39zM60.4 14.69L62.46 16l-.06-.76-2-1.41v.86zM60.41 10.89v.81l1.81 1.3-.07-1zM60.41 12.3v.92l1.95 1.37c0-.31 0-.63-.08-1zM60.42 9.24v1.05l1.69 1.13c0-.32-.05-.65-.08-1zM49.77 28.14l-.53.25v3.14l.66-.4zM60.44 3.18l1.07.63c0-.31 0-.62-.07-.91l-1-.55v.83zM58.1 26.14l.59-.36-.54-1.61-.22.12-.38.18zM61.56 4.4l-1.12-.65v.64l1.17.7-.05-.69zM60.42 7.75v.87L62 9.8l-.08-1.07zM60.43 5v.93l1.3.74c0-.31-.05-.63-.08-.94zM60.43 6.46v.71l1.42.94c0-.29 0-.59-.07-.88zM62.7 20.67l-2.32-2.19v.93l2.2 2.16a7.26 7.26 0 0 0 .12-.9zM62.44 22.11l-2.06-2v.35a3.87 3.87 0 0 1 0 .5l1.77 2a4.54 4.54 0 0 0 .29-.85zM61.84 23.35l-1.63-1.81A4.33 4.33 0 0 1 60 22l1.2 2a4.89 4.89 0 0 0 .64-.65zM62.68 18.75a1.19 1.19 0 0 0 0-.13l-2.28-1.68v.86l2.33 2.2c0-.37-.02-.8-.05-1.25zM60.85 24.37l-1.08-1.81a4.63 4.63 0 0 1-.31.46l.8 1.78.59-.43zM48.75 28.62l-.52.24v3.29l.53-.32z"/>
  </g>
  <g fill="#cdcfd0">
    <path d="M51.29 30.86l-.78.48 1.32 1.94 1.1-.77zM51.42 33.56l-1.34-2-.76.46 1.16 2.17zM52.43 30.17l-.72.44 1.62 1.62.85-.6zM53.64 29.43l-.76.46 1.73 1.43.77-.54zM54.6 28.84l-.52.31 1.71 1.32.66-.47zM55.65 28.21l-.58.35 1.81 1.14.63-.45zM62.78 13.81c0 .35.05.69.08 1l1.82-.61-.1-1.12zM56.86 27.47l-.73.44 1.81 1 .67-.49zM63.13 18.18l1.87-.53c0-.42-.07-.87-.12-1.36L63 16.6c0 .6.09 1.13.13 1.58zM63 16.1l1.85-.3c0-.35-.06-.71-.09-1.08l-1.82.61c-.02.26 0 .52.06.77zM65.09 19.21c0-.31 0-.66-.08-1.06l-1.85.52q.06.76 0 1.4zM58.92 26.21l-.48.3 1.6.88.66-.5zM63.06 21.68l2.06-.82a4.63 4.63 0 0 0 0-.65v-.48l-1.93.93a8.39 8.39 0 0 1-.13 1.02zM58 26.8l-.61.38 1.71.95.56-.42zM62.91 22.27a4.66 4.66 0 0 1-.36.88h1.76a5.84 5.84 0 0 0 .69-1.72zM62.24 23.63a4.75 4.75 0 0 1-.6.7l1.52.34a11.51 11.51 0 0 0 .81-1zM61.9 2.41l1.63-.68v-.36c0-.45-.41-.58-.76-.58h-1l.13 1.62zM62.49 10l1.74-.84-.11-1.14-1.73.74.1 1.24zM62.23 6.68l1.69-.74c0-.33-.06-.66-.09-1l-1.68.77.08.97zM60.15 25.46l-.21.13-.48.29 1.7.64.42-.34.27-.23zM61.18 24.74l-.49.36 1.58.46.49-.47zM62 4l1.65-.75c0-.35-.06-.67-.09-1l-1.64.68c.08.34.08.68.08 1.07zM62.27 7.2c0 .35.05.69.08 1l1.72-.74-.1-1zM62.06 4.48c0 .24 0 .48.06.73l1.67-.77-.07-.71zM64.53 12.59c0-.41-.07-.83-.11-1.25l-1.78.66c0 .42.07.84.1 1.25zM62.61 11.53l1.77-.71c0-.38-.07-.76-.1-1.14l-1.74.84c.01.34.04.68.07 1.01zM48.91 32.31l-.56.34-.12.08v3.06l1.85-1.28z"/>
  </g>
</svg>